<svg id="Layer_1" xmlns="http://www.w3.org/2000/svg" style="fill: currentColor;" viewBox="0 0 24 24"><style>.st0{fill:none}</style><path class="st0" d="M0 0h24v24H0z"/><path d="M18.5 24c-3.032 0-5.5-2.468-5.5-5.5s2.468-5.5 5.5-5.5 5.5 2.468 5.5 5.5-2.468 5.5-5.5 5.5zm0-10c-2.481 0-4.5 2.019-4.5 4.5s2.019 4.5 4.5 4.5 4.5-2.019 4.5-4.5-2.019-4.5-4.5-4.5z"/><path d="M21 18h-2v-2a.5.5 0 1 0-1 0v2h-2a.5.5 0 1 0 0 1h2v2a.5.5 0 1 0 1 0v-2h2a.5.5 0 1 0 0-1zM20.512 7h-20a.5.5 0 0 0-.5.5v2a.5.5 0 0 0 .5.5h.599l1.913 8.608a.5.5 0 0 0 .488.392h8a.5.5 0 1 0 0-1H3.913l-1.777-8h16.753l-.422 1.897a.5.5 0 0 0 .976.217l.47-2.114h.599a.5.5 0 0 0 .5-.5v-2a.5.5 0 0 0-.5-.5zm-.5 2h-19V8h19v1zM3.513 6a.5.5 0 0 0 .32-.116l6-5a.5.5 0 0 0-.641-.768l-6 5a.5.5 0 0 0 .32.884zM17.191 5.884a.5.5 0 0 0 .641-.768l-6-5a.5.5 0 0 0-.64.768l6 5z"/></svg>
