<svg id="Layer_1" xmlns="http://www.w3.org/2000/svg" viewBox="0 0 58 45"><style>.st0{fill:none}.st1{fill:#bda871}</style><path class="st0" d="M-.002 0H58v45H-.002z"/><path class="st1" d="M6.339 16.094s1.791-2.283.633-5.455c-1.163-3.17-3.87-4.374-3.87-4.374s-2.027 2.722-.894 5.812c1.13 3.092 4.13 4.017 4.13 4.017zm5.57-3.833c-1.84 2.84-.598 5.455-.598 5.455s3.132-.247 4.926-3.017c1.794-2.768.423-5.864.423-5.864s-2.908.584-4.75 3.426zm4.332 10.979c1.41-2.978-.358-5.87-.358-5.87s-2.805.952-4.254 4.006c-1.45 3.054.125 5.49.125 5.49s3.076-.653 4.487-3.626zm-1.389 4.98c-1.153 3.177.645 5.453.645 5.453s2.997-.934 4.12-4.028c1.123-3.093-.909-5.81-.909-5.81s-2.704 1.213-3.856 4.385zm6.109 12.318s2.6-1.75 2.776-5.031c.174-3.284-2.566-5.304-2.566-5.304s-2.236 1.93-2.416 5.298c-.178 3.366 2.206 5.037 2.206 5.037zM13.918 5.794c.815-3.274-.76-5.762-.76-5.762S9.946 1.184 9.15 4.378c-.792 3.192 1.182 5.605 1.182 5.605s2.772-.916 3.585-4.19zM6.337 23.056s1.03-2.706-1.024-5.396c-2.056-2.692-5-3.053-5-3.053s-1.125 3.192.877 5.815c2.003 2.626 5.147 2.634 5.147 2.634zm2.297 7.14s.394-2.864-2.21-5.036C3.815 22.986.863 23.282.863 23.282s-.38 3.36 2.16 5.477c2.543 2.116 5.611 1.436 5.611 1.436zm3.498 5.903s-.495-2.848-3.645-4.136c-3.153-1.292-5.875-.126-5.875-.126s.667 3.316 3.737 4.576c3.07 1.254 5.783-.314 5.783-.314zm1.53 2.451c-3.285-.907-5.849.57-5.849.57s1.062 3.213 4.26 4.098c3.203.886 5.707-.992 5.707-.992s-.835-2.77-4.119-3.676zm-2.988-26.615l-1.46-.71C9.138 11.383 1.628 27.16 22.73 45l1.056-1.222C3.694 26.79 10.379 12.533 10.674 11.935zm45.114.112c1.132-3.092-.892-5.812-.892-5.812s-2.71 1.204-3.868 4.376c-1.161 3.17.632 5.453.632 5.453s3.001-.925 4.128-4.017zm-9.1 5.64s1.242-2.616-.598-5.458c-1.845-2.84-4.752-3.424-4.752-3.424s-1.372 3.096.422 5.864c1.796 2.767 4.928 3.017 4.928 3.017zm-4.574-.348s-1.765 2.891-.358 5.869c1.413 2.974 4.49 3.626 4.49 3.626s1.575-2.436.125-5.49c-1.45-3.052-4.257-4.005-4.257-4.005zm.387 16.306s1.8-2.276.646-5.452c-1.154-3.177-3.856-4.387-3.856-4.387s-2.034 2.715-.91 5.81c1.125 3.093 4.12 4.029 4.12 4.029zm-5.467 6.861s2.389-1.667 2.209-5.037c-.182-3.37-2.415-5.3-2.415-5.3s-2.741 2.022-2.568 5.306c.176 3.283 2.774 5.031 2.774 5.031zM47.663 9.953s1.978-2.416 1.185-5.605C48.055 1.15 44.844 0 44.844 0s-1.577 2.49-.762 5.763c.812 3.274 3.581 4.19 3.581 4.19zm5.02 7.678c-2.05 2.69-1.02 5.395-1.02 5.395s3.142-.008 5.146-2.634c2.004-2.624.877-5.815.877-5.815s-2.946.362-5.002 3.054zm-1.107 7.495c-2.607 2.176-2.21 5.04-2.21 5.04s3.067.677 5.609-1.439c2.541-2.115 2.161-5.477 2.161-5.477s-2.952-.296-5.56 1.876zm-2.063 6.803c-3.15 1.29-3.648 4.14-3.648 4.14s2.714 1.568 5.785.308c3.07-1.258 3.737-4.574 3.737-4.574s-2.72-1.166-5.874.126zm-5.176 6.592c-3.282.907-4.116 3.675-4.116 3.675s2.504 1.878 5.705.996c3.2-.892 4.26-4.102 4.26-4.102s-2.566-1.475-5.85-.57zm4.45-27.326l-1.464.71c.295.596 6.98 14.857-13.107 31.841l1.053 1.222C56.374 27.13 48.864 11.353 48.787 11.195z"/></svg>