<svg id="Layer_1" xmlns="http://www.w3.org/2000/svg" viewBox="0 0 40 40"><style>.st0{fill:none}</style><path class="st0" d="M0 0h40v40H0z"/><path d="M8.788 17.205c-2.405 1.71-3.557 1.055-4.775.361-.99-.563-2.111-1.2-3.734-.402a.5.5 0 0 0 .442.898c1.148-.565 1.875-.151 2.798.374.707.402 1.507.858 2.56.858.886 0 1.95-.323 3.288-1.273a.5.5 0 0 0-.58-.816zM8.788 13.826c-2.405 1.709-3.557 1.055-4.775.361-.99-.562-2.111-1.2-3.734-.402a.5.5 0 0 0 .442.897c1.148-.564 1.875-.15 2.798.374.707.402 1.507.859 2.56.859.886 0 1.95-.324 3.288-1.274a.5.5 0 0 0-.58-.815zM8.788 10.446c-2.405 1.711-3.557 1.056-4.775.362-.99-.563-2.112-1.201-3.734-.403a.5.5 0 0 0 .442.898c1.148-.565 1.875-.15 2.797.374.708.403 1.508.859 2.561.859.886 0 1.95-.324 3.288-1.274a.5.5 0 0 0-.58-.816zM40 13.914c0-5.182-4.216-9.397-9.397-9.397-2.319 0-4.44.848-6.08 2.245L12.706 9.26a.5.5 0 0 0-.397.49v9.27a.5.5 0 0 0 .422.493l12.3 1.95a9.379 9.379 0 0 0 2.005 1.141v9.12c0 2.073 1.686 3.758 3.758 3.758s3.758-1.685 3.758-3.757V22.43C37.763 20.934 40 17.684 40 13.914zm-26.69-3.76l9.963-2.106a9.347 9.347 0 0 0 .397 12.188l-10.36-1.643v-8.438zm20.242 21.57c0 1.521-1.238 2.758-2.758 2.758s-2.758-1.237-2.758-2.757v-8.779a9.352 9.352 0 0 0 2.567.366c1.03 0 2.02-.173 2.949-.482v8.895zm-2.95-9.412c-4.63 0-8.396-3.768-8.396-8.398s3.767-8.397 8.397-8.397c4.63 0 8.397 3.767 8.397 8.397 0 4.63-3.767 8.398-8.397 8.398z"/><path d="M30.603 9.359a4.56 4.56 0 0 0-4.555 4.555c0 2.512 2.043 4.556 4.555 4.556s4.555-2.044 4.555-4.556a4.56 4.56 0 0 0-4.555-4.555zm0 8.11c-1.96 0-3.555-1.594-3.555-3.555s1.595-3.555 3.555-3.555c1.96 0 3.555 1.595 3.555 3.555s-1.595 3.556-3.555 3.556z"/></svg>