<svg id="Layer_1" xmlns="http://www.w3.org/2000/svg" viewBox="0 0 40 40"><style>.st0{fill:none}</style><path class="st0" d="M0 0h40v40H0z"/><path d="M8.864 18.72c-2.43 1.728-3.592 1.066-4.822.365-.998-.568-2.13-1.21-3.763-.406a.5.5 0 0 0 .442.898c1.158-.572 1.894-.153 2.826.377.713.406 1.52.866 2.582.865.893 0 1.966-.325 3.314-1.283a.5.5 0 0 0-.58-.816zM8.864 15.311c-2.43 1.728-3.592 1.064-4.822.365-.998-.568-2.13-1.21-3.763-.406a.5.5 0 0 0 .442.897c1.158-.571 1.894-.152 2.826.378.713.406 1.52.866 2.582.865.893 0 1.966-.326 3.314-1.284a.5.5 0 0 0-.58-.815zM8.864 11.902c-2.43 1.727-3.592 1.065-4.822.365-.998-.568-2.13-1.21-3.763-.406a.5.5 0 0 0 .442.897c1.158-.572 1.894-.152 2.826.378.713.406 1.52.865 2.582.865.893 0 1.966-.326 3.314-1.284a.5.5 0 0 0-.58-.815zM39.992 16.302c.014-.192.026-.834-.212-1.654-.006-.019-.009-.038-.017-.056a5.763 5.763 0 0 0-1.244-2.204c-.397-.444-1.217-.879-2.325-1.231-.03-.015-.063-.022-.096-.03-2.907-.9-7.776-1.214-12.663.446-3.721 1.264-5.403.695-5.67.591l-.009-.003-.045-.016a11.518 11.518 0 0 1-2.36-1.098 12.84 12.84 0 0 0-2.95-1.303.5.5 0 0 0-.632.482v12.151a.5.5 0 0 0 .632.482 12.84 12.84 0 0 0 2.95-1.302c1.149-.7 2.183-1.041 2.39-1.112.01-.003.02-.005.03-.01l.013-.004c.017-.007 1.689-.747 5.65.6 1.123.38 2.289.675 3.466.875.275.046.486.151.565.28.107.174.079.31.073.333l-.004.01-1.983 6.33v.004l-.732 2.335c-.281.897-.215 1.72.18 2.259.266.36.66.56 1.113.56h2.467c1.045 0 2.21-1.107 2.652-2.52l2.73-8.74c.193-.643.317-.834.578-.884a14.56 14.56 0 0 0 1.615-.408l.023-.007c1.092-.347 1.93-.781 2.342-1.243a5.762 5.762 0 0 0 1.245-2.208c.007-.015.01-.03.015-.046.239-.823.227-1.467.213-1.66zm-25.16 4.401c-.768.467-1.543.791-2.063.982V10.918c.52.19 1.293.514 2.062.982a12.7 12.7 0 0 0 2.236 1.083v6.641c-.458.167-1.305.512-2.236 1.08zm14.085 5.686c0 1.208-.983 2.19-2.19 2.19-.014 0-.026-.004-.039-.004l1.25-3.99c.595.401.979 1.066.979 1.804zm5.432-5.497c-.928.178-1.18 1.022-1.357 1.638l-2.715 8.668c-.336 1.072-1.165 1.819-1.698 1.819h-2.467a.349.349 0 0 1-.307-.152c-.149-.203-.246-.683-.032-1.368l.614-1.961c.114.012.225.044.34.044 1.758 0 3.19-1.432 3.19-3.191a3.203 3.203 0 0 0-1.666-2.802l.236-.754c.04-.12.169-.617-.169-1.169-.234-.383-.678-.647-1.25-.745a21.45 21.45 0 0 1-3.312-.836c-2.97-1.009-4.803-.927-5.69-.763v-6.04c.92.17 2.745.24 5.69-.76 4.678-1.59 9.097-1.283 11.721-.554v8.658a14.18 14.18 0 0 1-1.128.268zm3.425-1.344c-.197.22-.644.488-1.297.745V12.3c.624.247 1.078.51 1.297.756.378.423.633.846.815 1.244h-.836a.5.5 0 1 0 0 1h1.165c.108.54.079.916.076.946a.497.497 0 0 0 0 .114c0 .008.035.387-.076.943h-1.165a.5.5 0 1 0 0 1h.836a4.913 4.913 0 0 1-.815 1.246z"/></svg>