<svg id="Layer_1" xmlns="http://www.w3.org/2000/svg" viewBox="0 0 24 24"><style>.st0{fill:none}</style><path class="st0" d="M0 0h24v24H0z"/><path d="M20.975 18.658l3-9A.499.499 0 0 0 23.5 9H5.808L4.487 3.385A.5.5 0 0 0 4 3H.5a.5.5 0 1 0 0 1h3.104l3.79 16.104A1.996 1.996 0 0 0 6 22c0 1.103.897 2 2 2s2-.897 2-2c0-.366-.106-.705-.278-1h7.556A1.976 1.976 0 0 0 17 22c0 1.103.897 2 2 2s2-.897 2-2-.897-2-2-2H8.396l-.235-1H20.5a.501.501 0 0 0 .475-.342zM9 22a1.001 1.001 0 0 1-2 0 1.001 1.001 0 0 1 2 0zm11 0a1 1 0 1 1-2.001-.001A1 1 0 0 1 20 22zM7.925 18l-1.882-8h16.764l-2.667 8H7.925z"/></svg>