<svg id="Layer_1" xmlns="http://www.w3.org/2000/svg" viewBox="0 0 40 40"><style>.st0{fill:none}</style><path class="st0" d="M0 0h40v40H0z"/><path d="M21.166 29.831h-2.328c-9.025 0-16.913-6.4-18.759-15.215a3.664 3.664 0 0 1 .75-3.073 3.7 3.7 0 0 1 2.881-1.374H17.3c1.032 0 1.74 1.779 1.798 2.394.112 1.197-.113 3.157-1.823 5.7-.546.812-.8 1.524-.8 2.24 0 1.944 1.58 3.525 3.525 3.525s3.525-1.58 3.525-3.525c0-.717-.254-1.429-.8-2.24-1.708-2.54-1.935-4.502-1.824-5.7.059-.616.768-2.394 1.8-2.394H36.29a3.7 3.7 0 0 1 2.883 1.374c.704.866.976 1.986.749 3.073-1.846 8.816-9.733 15.215-18.755 15.215zm-3.88-18.663H3.71c-.82 0-1.587.367-2.106 1.005a2.669 2.669 0 0 0-.546 2.238c1.75 8.356 9.225 14.42 17.775 14.42h2.333c8.55 0 16.027-6.064 17.776-14.42a2.67 2.67 0 0 0-.546-2.238 2.704 2.704 0 0 0-2.107-1.004H22.701c-.233.062-.76 1.022-.804 1.488-.079.847.032 2.63 1.658 5.048.662.983.97 1.873.97 2.798A4.53 4.53 0 0 1 20 25.028a4.53 4.53 0 0 1-4.526-4.525c0-.924.309-1.813.97-2.798 1.628-2.42 1.738-4.202 1.658-5.048-.043-.466-.57-1.426-.815-1.489z"/></svg>