<svg id="Layer_1" xmlns="http://www.w3.org/2000/svg" viewBox="0 0 40 40"><style>.st0{fill:none}</style><path class="st0" d="M0 0h40v40H0z"/><path d="M38.331 15.794h-.576v-2.545a1.67 1.67 0 0 0-1.668-1.669H34.37c-.656-1.85-4.152-10.18-13.338-8.383a.501.501 0 0 0-.28.82c.008.008.769.897.352 1.816-.45.998-2.571 2.677-11.709 2.716-3.014.013-3.853 2.084-4.08 3.031H3.912a1.67 1.67 0 0 0-1.668 1.669v2.545h-.577A1.67 1.67 0 0 0 0 17.463v.822c0 9.824 5.563 18.772 11.67 18.772h16.66c6.108 0 11.67-8.948 11.67-18.772v-.822c0-.92-.749-1.67-1.669-1.67zM9.4 9.549c7.395-.032 11.64-1.143 12.617-3.304.384-.85.183-1.647-.07-2.188 7.52-1.044 10.578 5.417 11.367 7.523H6.343c.233-.75.937-2.022 3.056-2.031zM39 18.285c0 9.3-5.086 17.772-10.67 17.772H11.67C6.086 36.057 1 27.586 1 18.285v-.822c0-.369.3-.67.668-.67h5.979a.5.5 0 1 0 0-1H3.245V13.25c0-.37.3-.669.668-.669h32.174c.368 0 .668.3.668.669v2.545H13.32a.5.5 0 1 0 0 1H38.33c.37 0 .669.3.669.669v.822z"/></svg>