<svg id="Layer_1" xmlns="http://www.w3.org/2000/svg" viewBox="0 0 40 40"><style>.st0{fill:none}</style><path class="st0" d="M0 0h40v40H0z"/><path d="M20 27.605c1.874 0 3.398-1.524 3.398-3.398S21.874 20.809 20 20.809s-3.398 1.524-3.398 3.398 1.524 3.398 3.398 3.398zm0-5.796c1.322 0 2.398 1.076 2.398 2.398S21.322 26.605 20 26.605s-2.398-1.076-2.398-2.398 1.076-2.398 2.398-2.398z"/><path d="M30.466.5a.5.5 0 0 0-.5-.5H10.034a.5.5 0 0 0-.5.5v4.65c0 .034.013.063.02.095.003.018-.002.036.003.054l2.974 9.492v17.74C12.531 36.65 15.881 40 20 40s7.469-3.35 7.469-7.469v-17.74L30.443 5.3c.006-.018 0-.038.004-.057.006-.03.019-.06.019-.092V.5zm-1 4.15h-1.848V1h1.848v3.65zm-4.695 0V1h1.847v3.65h-1.847zm-2.847 0V1h1.847v3.65h-1.847zm-2.848 0V1h1.848v3.65h-1.848zm-2.847 0V1h1.847v3.65H16.23zm-2.848 0V1h1.848v3.65h-1.848zM10.534 1h1.847v3.65h-1.847V1zM26.47 32.531A6.477 6.477 0 0 1 20 39a6.476 6.476 0 0 1-6.469-6.469v-17.32H26.47v17.32zm.134-18.32H13.397L10.715 5.65h18.57l-2.682 8.56z"/></svg>