<svg id="Layer_1" xmlns="http://www.w3.org/2000/svg" viewBox="0 0 40 40"><style>.st0{fill:none}</style><path class="st0" d="M0 0h40v40H0z"/><path d="M5.941 29.276a.5.5 0 0 1-.412-.782 16.115 16.115 0 0 1 26.642.001.5.5 0 1 1-.826.563 15.116 15.116 0 0 0-24.99 0 .5.5 0 0 1-.414.218z"/><path d="M39.5 21.64a.495.495 0 0 1-.244-.063c-9.825-5.509-25.846-3.19-33.64-.436a4.16 4.16 0 0 1-3.34-.232 4.177 4.177 0 0 1-2.118-2.601 4.213 4.213 0 0 1 2.664-5.12c3.366-1.167 10.088-3.018 17.3-2.307 14.986 1.479 19.627 9.672 19.817 10.02a.5.5 0 0 1-.439.74zm-22.665-9.917c-5.77 0-10.901 1.444-13.685 2.41a3.213 3.213 0 0 0-2.029 3.904c.244.866.818 1.57 1.615 1.984.797.412 1.7.475 2.547.177 5.41-1.913 21.207-5.462 32.54-.453-2.172-2.438-7.448-6.847-17.8-7.869a32.423 32.423 0 0 0-3.188-.153z"/></svg>