<svg id="Layer_1" xmlns="http://www.w3.org/2000/svg" viewBox="0 0 40 40"><style>.st0{fill:none}</style><path class="st0" d="M0 0h40v40H0z"/><path d="M19.965 31.377a6.724 6.724 0 0 1-6.717-6.716 6.724 6.724 0 0 1 6.717-6.717 6.724 6.724 0 0 1 6.717 6.717 6.724 6.724 0 0 1-6.717 6.716zm0-12.433c-3.152 0-5.717 2.564-5.717 5.717s2.565 5.716 5.717 5.716 5.717-2.564 5.717-5.716-2.565-5.717-5.717-5.717z"/><path d="M19.965 34.343a21.504 21.504 0 0 1-17.774-9.4.5.5 0 0 1 0-.564 21.503 21.503 0 0 1 35.548 0 .499.499 0 0 1 0 .563 21.505 21.505 0 0 1-17.774 9.401zM3.213 24.661a20.501 20.501 0 0 0 33.505 0 20.505 20.505 0 0 0-33.505 0zM16.82 13.178a.5.5 0 0 1-.495-.43l-.927-6.52a.5.5 0 0 1 .99-.141l.927 6.52a.5.5 0 0 1-.496.571zM10.704 14.808a.5.5 0 0 1-.452-.285L7.412 8.58a.5.5 0 1 1 .903-.43l2.84 5.942a.5.5 0 0 1-.451.716zM5.002 18.274a.498.498 0 0 1-.364-.158L.135 13.309a.5.5 0 1 1 .73-.683l4.502 4.806a.5.5 0 0 1-.365.842zM23.182 13.178a.5.5 0 0 1-.496-.57l.926-6.521a.5.5 0 1 1 .99.14l-.926 6.522a.5.5 0 0 1-.494.43zM29.297 14.808a.5.5 0 0 1-.451-.715l2.839-5.944a.5.5 0 1 1 .902.431l-2.839 5.943a.5.5 0 0 1-.451.285zM34.997 18.274a.5.5 0 0 1-.365-.842l4.503-4.806a.5.5 0 0 1 .73.683l-4.503 4.807a.5.5 0 0 1-.365.158z"/></svg>