<svg id="Layer_1" xmlns="http://www.w3.org/2000/svg" viewBox="0 0 40 40"><style>.st0{fill:none}</style><path class="st0" d="M.005 0h40v40h-40z"/><path d="M39.487 21.811a.748.748 0 0 0-.952.47c-.026.076-2.671 7.69-7.584 7.69-1.557 0-3.27-.52-5.08-1.255 6.828-2.071 10.699-13.33 10.881-13.872a.75.75 0 0 0-1.422-.479c-.046.14-4.76 13.85-12.189 13.147l-.87-.406-.94-.437c7.87-2.252 10.431-16.176 10.547-16.835a.75.75 0 0 0-.607-.869.758.758 0 0 0-.87.608c-.03.166-3.016 16.526-11.806 15.887a35.305 35.305 0 0 0-.937-.365c7.527-5.388 7.469-17.59 7.462-18.135a.75.75 0 0 0-.75-.74h-.01a.75.75 0 0 0-.74.76c.002.13.069 12.976-7.77 17.498A16.491 16.491 0 0 0 13.688 24c5.61-5.858 4.128-16.069 4.057-16.53a.75.75 0 1 0-1.482.227c.017.11 1.602 11.104-4.633 16.16-.504.01-1 .047-1.49.107C14.136 18.81 12.27 9.527 12.177 9.08a.755.755 0 0 0-.887-.582.75.75 0 0 0-.582.887c.024.114 2.284 11.391-3.355 15.151-.226.066-.45.133-.67.205 2.847-5.214.83-13.448.727-13.854a.75.75 0 0 0-1.454.367c.026.106 2.607 10.641-2.065 14.615-.227.11-.444.22-.653.328C5.17 21.16 2.133 14.961 1.975 14.646a.75.75 0 1 0-1.34.671c.04.083 4.04 8.244-.288 12.645l-.055.04a.738.738 0 0 0-.285.573.733.733 0 0 0 .009.168c.004.02.005.04.01.059.03.13.08.255.179.358a.747.747 0 0 0 1.06.021c.034-.033.063-.067.096-.1.394-.28 1.529-1.05 3.13-1.826.025-.009.047-.023.072-.034.93-.447 2.009-.888 3.178-1.231.07-.01.137-.03.203-.061 1.248-.35 2.594-.584 3.97-.584 3.054 0 6.443 1.586 9.721 3.12 3.304 1.546 6.424 3.006 9.316 3.006 5.988 0 8.884-8.354 9.004-8.71a.75.75 0 0 0-.468-.95z"/><path d="M22.926 32.401c-12.496-8.137-21.509-.244-21.599-.164a.749.749 0 0 0 1.003 1.115c.332-.297 8.274-7.184 19.778.306a.752.752 0 0 0 1.038-.22.75.75 0 0 0-.22-1.037z"/></svg>