<svg id="Layer_1" xmlns="http://www.w3.org/2000/svg" viewBox="0 0 40 40"><style>.st0{fill:none}</style><path class="st0" d="M0 0h40v40H0z"/><path d="M39.786 13.996a.501.501 0 0 0-.696.125c-4.225 6.064-9.958 7.665-11.175 7.945a18.537 18.537 0 0 0-1.646-1.482c1.982-.689 6.602-2.79 10.471-8.344a.5.5 0 1 0-.82-.571c-4.253 6.104-9.563 7.872-10.641 8.178a18.168 18.168 0 0 0-1.884-1.145c2.066-.78 6.335-2.925 10.019-8.213a.5.5 0 1 0-.82-.572c-4.308 6.184-9.546 7.893-10.495 8.16a18.157 18.157 0 0 0-2.66-.898c2.148-.946 5.96-3.181 9.356-8.058a.5.5 0 1 0-.82-.57c-4.437 6.366-9.711 8.055-10.404 8.254a18.662 18.662 0 0 0-2.73-.207c-.071 0-.142.005-.213.006 2.28-1.257 5.586-3.62 8.508-7.815a.5.5 0 1 0-.82-.57C17.747 14.774 12.07 16.726 11.6 16.88c-4.559.805-8.638 3.3-11.5 7.116a.5.5 0 0 0 0 .6c3.525 4.702 8.899 7.4 14.742 7.4s11.215-2.698 14.742-7.4a.501.501 0 0 0 0-.6c-.284-.378-.584-.739-.891-1.091 2.024-.553 7.213-2.464 11.217-8.213a.5.5 0 0 0-.124-.696zm-20.192 4.258a5.796 5.796 0 0 1 1.092 3.387c0 3.223-2.622 5.845-5.844 5.845s-5.845-2.622-5.845-5.845a5.79 5.79 0 0 1 1.094-3.387 17.484 17.484 0 0 1 4.75-.656c1.635 0 3.23.226 4.753.656zm-4.752 12.741c-5.4 0-10.376-2.436-13.712-6.699a17.374 17.374 0 0 1 7.535-5.57 6.784 6.784 0 0 0-.668 2.915 6.852 6.852 0 0 0 6.845 6.845 6.852 6.852 0 0 0 6.844-6.845 6.786 6.786 0 0 0-.667-2.914c.281.107.56.22.834.34.012.006.022.012.035.016a17.166 17.166 0 0 1 2.964 1.682c.022.02.046.034.071.049a17.645 17.645 0 0 1 3.63 3.482c-3.335 4.263-8.312 6.7-13.711 6.7z"/></svg>