<svg id="Layer_1" xmlns="http://www.w3.org/2000/svg" viewBox="0 0 40 40"><style>.st0{fill:none}</style><path class="st0" d="M0 0h40v40H0z"/><path d="M38.814 28.42L16.615 6.652c-2.698-2.539-6.714-2.473-9.346.159l-6.625 6.77c-.915.914-.915 2.242 0 3.156.914.914 2.241.914 3.156 0l5.474-5.474h.743l1.258 1.218L5.1 19.068a.5.5 0 1 0 .73.683l6.163-6.574 1.837 1.779-6.417 6.554a.5.5 0 1 0 .714.699l6.421-6.558 1.767 1.712-6.449 6.449a.5.5 0 1 0 .707.707l6.46-6.46 1.772 1.714-6.345 6.344a.5.5 0 1 0 .707.707l6.356-6.355 1.7 1.647-6.317 6.455a.5.5 0 0 0 .715.7l6.321-6.46 1.468 1.422v.738l-5.185 5.326c-.443.443-.687 1.004-.687 1.578 0 .575.244 1.136.687 1.578.885.887 2.265.892 3.162-.005l5.184-5.324h.738l6.046 5.906c.813.812 1.808 1.218 2.804 1.218s1.991-.406 2.804-1.218a.502.502 0 0 0 .037-.04c1.338-1.674 1.27-3.955-.186-5.57zm-.578 4.923c-1.25 1.233-2.926 1.228-4.177-.024l-6.197-6.052a.498.498 0 0 0-.35-.143H26.36a.502.502 0 0 0-.358.151l-5.327 5.471c-.529.528-1.215.53-1.743 0-.258-.258-.394-.559-.394-.871 0-.312.136-.613.399-.876l5.332-5.477a.5.5 0 0 0 .141-.348V24.02a.5.5 0 0 0-.152-.359l-9.35-9.055c-.007-.007-.009-.016-.015-.022-.007-.007-.017-.009-.024-.015l-4.302-4.166a.5.5 0 0 0-.347-.14H9.067a.5.5 0 0 0-.354.146l-5.62 5.62c-.52.521-1.22.522-1.742 0-.53-.529-.53-1.214.003-1.747L7.98 7.514c2.236-2.236 5.655-2.294 7.943-.14l22.172 21.738c1.093 1.214 1.15 2.95.142 4.23z"/></svg>