<svg id="Layer_1" xmlns="http://www.w3.org/2000/svg" viewBox="0 0 40 40"><style>.st0{fill:none}</style><path class="st0" d="M0 0h40v40H0z"/><path d="M25.896 17.956l.001-.007v-4.214a.5.5 0 1 0-1 0v3.714H24.1v-3.714a.5.5 0 1 0-1 0v3.714h-.8v-3.714a.5.5 0 1 0-1 0v3.714h-.798v-3.714a.5.5 0 1 0-1 0v3.714h-.799v-3.714a.5.5 0 1 0-1 0v3.714h-.799v-3.714a.5.5 0 1 0-1 0v3.714h-.799v-3.714a.5.5 0 1 0-1 0v4.214c-.024.776.038 1.769.468 2.137.223.191 1.979 2.129 3.11 3.392l1.207 15.41c0 .613.498 1.112 1.111 1.112s1.111-.499 1.11-1.072l1.207-15.45c1.132-1.263 2.887-3.2 3.11-3.392.43-.367.492-1.355.469-2.13zm-1.119 1.37c-.35.3-2.825 3.06-3.317 3.61a.497.497 0 0 0-.126.294L20.111 38.89c0 .123-.22.162-.224-.04l-1.22-15.619a.503.503 0 0 0-.126-.294c-.493-.55-2.97-3.31-3.291-3.58-.069-.106-.125-.485-.143-.907h9.787c-.017.42-.068.793-.117.878zM19.636 12.346a.5.5 0 0 1-.476-.35c-.63-1.994-.14-3.34.336-4.642.593-1.626 1.207-3.308-.315-6.646a.5.5 0 0 1 .91-.416c1.692 3.712.976 5.674.344 7.405-.456 1.25-.85 2.328-.322 3.998a.5.5 0 0 1-.477.65zM22.503 12.346a.5.5 0 0 1-.477-.35c-.63-1.994-.138-3.34.336-4.641.594-1.627 1.208-3.309-.314-6.647a.5.5 0 0 1 .91-.416c1.692 3.712.976 5.674.344 7.406-.456 1.249-.85 2.328-.323 3.997a.5.5 0 0 1-.476.65zM25.37 12.346a.5.5 0 0 1-.477-.35c-.63-1.994-.14-3.34.336-4.641.594-1.626 1.209-3.309-.315-6.647a.5.5 0 0 1 .91-.416c1.693 3.712.977 5.675.345 7.406-.456 1.25-.85 2.328-.323 3.997a.5.5 0 0 1-.477.65zM16.77 12.346a.5.5 0 0 1-.477-.35c-.63-1.994-.14-3.34.336-4.642.594-1.626 1.208-3.308-.315-6.646a.5.5 0 0 1 .91-.416c1.693 3.712.977 5.674.344 7.405-.456 1.25-.85 2.329-.322 3.998a.5.5 0 0 1-.476.65zM13.902 12.346a.5.5 0 0 1-.476-.35c-.63-1.994-.139-3.34.336-4.641.594-1.627 1.208-3.309-.315-6.647a.5.5 0 0 1 .91-.416c1.693 3.712.976 5.674.345 7.406-.456 1.249-.85 2.328-.323 3.997a.499.499 0 0 1-.477.65z"/></svg>