<svg id="Layer_1" xmlns="http://www.w3.org/2000/svg" viewBox="0 0 40 40"><style>.st0{fill:none}</style><path class="st0" d="M0 0h40v40H0z"/><path d="M26.696 4.852a.5.5 0 1 0 0-1h-2.584v-.698h2.584a.5.5 0 1 0 0-1h-2.584V.5a.5.5 0 0 0-.5-.5h-7.394a.5.5 0 0 0-.5.5v1.654h-2.415a.5.5 0 1 0 0 1h2.415v.698h-2.415a.5.5 0 1 0 0 1h2.415v.698h-2.415a.5.5 0 1 0 0 1h2.415v.698h-2.415a.5.5 0 1 0 0 1h2.415v.698h-2.415a.5.5 0 1 0 0 1h2.415v.698h-2.415a.5.5 0 1 0 0 1h2.415v.697h-2.415a.5.5 0 1 0 0 1h2.415v.699h-2.415a.5.5 0 1 0 0 1h2.415v.697h-2.415a.5.5 0 1 0 0 1h2.415v.699h-2.415a.5.5 0 1 0 0 1h2.415v.697h-2.415a.5.5 0 1 0 0 1h2.415v.698h-2.415a.5.5 0 1 0 0 1h2.415v1.654a.5.5 0 0 0 .5.5h1.256c-.46 1.936-.711 4.4-.711 7.037 0 3.444.443 6.678 1.185 8.654a.5.5 0 0 0 .469.324h2.997a.5.5 0 0 0 .468-.324c.742-1.975 1.185-5.21 1.185-8.654 0-2.635-.252-5.1-.711-7.037h1.256a.5.5 0 0 0 .5-.5v-1.654h2.584a.5.5 0 1 0 0-1h-2.584v-.698h2.584a.5.5 0 1 0 0-1h-2.584v-.697h2.584a.5.5 0 1 0 0-1h-2.584v-.699h2.584a.5.5 0 1 0 0-1h-2.584v-.697h2.584a.5.5 0 1 0 0-1h-2.584v-.699h2.584a.5.5 0 1 0 0-1h-2.584v-.697h2.584a.5.5 0 1 0 0-1h-2.584v-.698h2.584a.5.5 0 1 0 0-1h-2.584v-.698h2.584a.5.5 0 1 0 0-1h-2.584V6.55h2.584a.5.5 0 1 0 0-1h-2.584v-.698h2.584zm-4.629 26.17c0 3.145-.374 6.087-1.006 7.978H18.77c-.633-1.892-1.007-4.834-1.007-7.978 0-2.627.267-5.164.738-7.037h2.828c.47 1.875.738 4.41.738 7.037zm1.045-8.037H16.718V1h6.394v21.985z"/><path d="M19.314 3.154h1.202a.5.5 0 1 0 0-1h-1.202a.5.5 0 1 0 0 1zM19.314 4.852h1.202a.5.5 0 1 0 0-1h-1.202a.5.5 0 1 0 0 1zM19.314 6.55h1.202a.5.5 0 1 0 0-1h-1.202a.5.5 0 1 0 0 1zM19.314 8.248h1.202a.5.5 0 1 0 0-1h-1.202a.5.5 0 1 0 0 1zM19.314 9.946h1.202a.5.5 0 1 0 0-1h-1.202a.5.5 0 1 0 0 1zM19.314 11.644h1.202a.5.5 0 1 0 0-1h-1.202a.5.5 0 1 0 0 1zM19.314 13.341h1.202a.5.5 0 1 0 0-1h-1.202a.5.5 0 1 0 0 1zM19.314 15.04h1.202a.5.5 0 1 0 0-1h-1.202a.5.5 0 1 0 0 1zM19.314 16.737h1.202a.5.5 0 1 0 0-1h-1.202a.5.5 0 1 0 0 1zM19.314 18.436h1.202a.5.5 0 1 0 0-1h-1.202a.5.5 0 1 0 0 1zM19.314 20.133h1.202a.5.5 0 1 0 0-1h-1.202a.5.5 0 1 0 0 1zM19.314 21.831h1.202a.5.5 0 1 0 0-1h-1.202a.5.5 0 1 0 0 1z"/></svg>