<svg id="Layer_1" xmlns="http://www.w3.org/2000/svg" viewBox="0 0 40 40"><style>.st0{fill:none}</style><path class="st0" d="M0 0h40v40H0z"/><path d="M25.193 0H14.371c-.599 0-1.086.487-1.086 1.086v1.258c0 .598.487 1.086 1.086 1.086h7.258v1.626h-7.844a.5.5 0 1 0 0 1h7.844v1.626h-7.844a.5.5 0 1 0 0 1h7.844v1.626h-7.844a.5.5 0 1 0 0 1h7.844v1.627h-7.844a.5.5 0 1 0 0 1h7.844v1.626h-7.844a.5.5 0 1 0 0 1h7.844v1.626h-7.844a.5.5 0 1 0 0 1h7.844v1.625h-7.844a.5.5 0 1 0 0 1h7.844v1.627h-7.844a.5.5 0 1 0 0 1h7.844v1.626h-7.844a.5.5 0 1 0 0 1h7.844v1.626h-7.844a.5.5 0 1 0 0 1h7.844v1.626h-7.844a.5.5 0 1 0 0 1h7.844v1.627h-7.844a.5.5 0 1 0 0 1h7.844v1.626H14.37c-.599 0-1.086.488-1.086 1.086v1.258c0 .599.487 1.086 1.086 1.086h10.822c.84 0 1.522-.683 1.522-1.521V1.52C26.715.683 26.032 0 25.193 0zm.522 38.479a.523.523 0 0 1-.522.521H14.371a.086.086 0 0 1-.086-.086v-1.258c0-.048.038-.086.086-.086h7.758a.5.5 0 0 0 .5-.5V2.93a.5.5 0 0 0-.5-.5H14.37a.086.086 0 0 1-.086-.086V1.086c0-.047.039-.086.086-.086h10.822c.287 0 .522.234.522.521V38.48z"/></svg>