<svg id="Layer_1" xmlns="http://www.w3.org/2000/svg" viewBox="0 0 40 40"><style>.st0{fill:none}</style><path class="st0" d="M0 0h40v40H0z"/><path d="M28.137 6.476c0-.005.003-.008.003-.012V.5a.5.5 0 1 0-1 0v5.464h-1.546V.5a.5.5 0 1 0-1 0v5.464h-1.546V.5a.5.5 0 1 0-1 0v5.464H20.5V.5a.5.5 0 1 0-1 0v5.464h-1.545V.5a.5.5 0 1 0-1 0v5.464H15.41V.5a.5.5 0 1 0-1 0v5.464h-1.546V.5a.5.5 0 1 0-1 0v5.964c-.023.705-.008 2.355.589 2.867.328.282 2.808 3.018 4.467 4.87l1.715 24.434c0 .753.612 1.365 1.365 1.365s1.365-.612 1.364-1.33L23.08 14.2c1.66-1.852 4.14-4.588 4.468-4.87.593-.51.612-2.146.59-2.855zm-1.24 2.096c-.495.424-4.25 4.613-4.676 5.09a.499.499 0 0 0-.127.298l-1.729 24.675c0 .2-.164.365-.365.365s-.365-.164-.367-.4l-1.727-24.64a.495.495 0 0 0-.126-.298c-.427-.477-4.182-4.666-4.67-5.083-.13-.153-.234-.86-.25-1.615h14.28c-.016.756-.119 1.461-.244 1.608z"/></svg>