<svg id="Layer_1" xmlns="http://www.w3.org/2000/svg" viewBox="0 0 40 40"><style>.st0{fill:none}</style><path class="st0" d="M0 0h40v40H0z"/><path d="M20 19.178a6.087 6.087 0 0 1-6.08-6.08c0-4.64 3.268-8.445 5.726-10.904a.515.515 0 0 1 .708 0c2.458 2.458 5.726 6.263 5.726 10.904a6.087 6.087 0 0 1-6.08 6.08zm0-15.92c-2.28 2.336-5.08 5.784-5.08 9.84a5.086 5.086 0 0 0 5.08 5.08c2.8 0 5.08-2.28 5.08-5.08 0-4.057-2.8-7.505-5.08-9.84zM25.88 25.826c-4.313 0-7.618-1.206-10.703-2.332-4.316-1.576-8.392-3.063-14.526-1.125a.499.499 0 1 1-.302-.953c6.46-2.041 10.69-.497 15.171 1.139 5.82 2.124 11.841 4.322 23.773-1.117a.5.5 0 1 1 .414.91c-5.682 2.59-10.125 3.478-13.826 3.478z"/><path d="M25.88 28.854c-4.314 0-7.618-1.207-10.703-2.333C10.86 24.947 6.782 23.46.65 25.396a.5.5 0 1 1-.302-.953c6.46-2.043 10.69-.497 15.171 1.139 5.82 2.125 11.841 4.324 23.773-1.117a.5.5 0 1 1 .414.91c-5.682 2.59-10.125 3.48-13.826 3.48z"/><path d="M25.88 31.882c-4.314 0-7.619-1.207-10.703-2.333C10.86 27.974 6.782 26.487.65 28.424a.5.5 0 1 1-.302-.953c6.46-2.042 10.69-.495 15.17 1.14 5.823 2.123 11.844 4.323 23.774-1.119a.5.5 0 1 1 .414.91c-5.682 2.591-10.126 3.48-13.827 3.48z"/><path d="M25.88 34.91c-4.314 0-7.619-1.207-10.703-2.333C10.86 31.003 6.782 29.516.65 31.452a.5.5 0 1 1-.302-.953c6.46-2.043 10.69-.496 15.17 1.14 5.823 2.124 11.844 4.322 23.774-1.118a.5.5 0 1 1 .414.91c-5.682 2.59-10.126 3.48-13.827 3.48z"/><path d="M25.88 37.938c-4.314 0-7.619-1.208-10.703-2.334C10.86 34.03 6.782 32.543.65 34.48a.5.5 0 1 1-.302-.953c6.46-2.043 10.69-.496 15.17 1.14 5.823 2.124 11.844 4.323 23.774-1.118a.5.5 0 1 1 .414.91c-5.682 2.59-10.126 3.48-13.827 3.48z"/></svg>