<svg id="Layer_1" xmlns="http://www.w3.org/2000/svg" viewBox="0 0 32.0940018 17.2819996"><style>.st0{fill:none}</style><path d="M6.56 14.18V2.59C6.56-.154 9.627.41 9.627.052V0H0v.052C0 .41 3.173-.205 3.173 2.59v11.59C3.173 17.667 0 16.82 0 17.23v.051h9.6v-.05c0-.41-3.04.435-3.04-3.052zm2.011-5.667h5.055v-.77H8.571v.77zm4.19-8.436c0 .358 3.146-.385 3.146 2.564V14.18c0 3.513-3.172 2.667-3.172 3.051v.051h6.56V0h-6.533v.077zM20.99 0v.18c5.35.41 7.34 4.23 7.34 8.666 0 5.308-2.903 7.975-7.34 8.283v.153c9.035 0 11.105-5.564 11.105-8.64C32.094 2.896 27.227 0 20.989 0z"/><path class="st0" d="M0 .052h32.094v17.23H0z"/></svg>