<svg id="Layer_1" xmlns="http://www.w3.org/2000/svg" viewBox="0 0 15 15"><style>.st0{fill:none}</style><path class="st0" d="M0 0h15v15H0z"/><path d="M14.442 4.562c-.034-.759-.152-1.277-.325-1.73a3.502 3.502 0 0 0-.805-1.261 3.42 3.42 0 0 0-1.237-.823c-.444-.176-.952-.296-1.696-.33C9.635.382 9.397.374 7.5.374c-1.896 0-2.134.008-2.879.043-.743.034-1.251.154-1.695.33-.46.182-.85.426-1.237.823a3.493 3.493 0 0 0-.806 1.261c-.173.454-.29.971-.324 1.73C.524 5.322.516 5.565.516 7.5c0 1.935.008 2.178.042 2.937.034.76.152 1.277.324 1.73.179.468.418.866.806 1.262.388.396.778.64 1.237.822.444.176.951.297 1.695.331.745.034.983.043 2.88.043 1.897 0 2.135-.009 2.88-.043.743-.034 1.25-.155 1.695-.331.459-.182.849-.426 1.237-.822.388-.396.627-.793.805-1.261.173-.454.29-.971.325-1.73.034-.76.042-1.003.042-2.938 0-1.935-.008-2.179-.042-2.938zm-1.257 5.816c-.031.695-.145 1.072-.24 1.323a2.21 2.21 0 0 1-.523.82 2.16 2.16 0 0 1-.803.533c-.247.096-.616.213-1.298.245-.736.034-.956.041-2.822.041s-2.086-.007-2.822-.041c-.68-.032-1.05-.148-1.297-.245a2.17 2.17 0 0 1-.804-.534 2.215 2.215 0 0 1-.522-.819c-.096-.25-.21-.628-.24-1.323-.034-.751-.041-.977-.041-2.88 0-1.901.007-2.127.04-2.878.032-.695.146-1.073.241-1.323.127-.332.278-.57.523-.82a2.16 2.16 0 0 1 .803-.532c.246-.098.616-.214 1.297-.246.737-.034.957-.041 2.823-.041s2.085.007 2.822.041c.68.032 1.05.148 1.297.246.326.129.559.284.803.533.245.249.396.486.523.819.095.25.21.628.24 1.323.034.751.041.977.041 2.88 0 1.902-.008 2.128-.041 2.878zM7.499 3.84c-1.98 0-3.586 1.638-3.586 3.66 0 2.02 1.606 3.658 3.586 3.658S11.086 9.52 11.086 7.5 9.481 3.84 7.5 3.84zm0 6.034c-1.286 0-2.328-1.063-2.328-2.375s1.042-2.376 2.328-2.376S9.827 6.187 9.827 7.5c0 1.312-1.041 2.375-2.328 2.375zm3.729-7.033a.847.847 0 0 0-.839.854c0 .472.375.855.839.855a.847.847 0 0 0 .838-.855.847.847 0 0 0-.838-.854z"/></svg>