<svg id="Layer_1" xmlns="http://www.w3.org/2000/svg" viewBox="0 0 24 24"><style>.st0{fill:none}</style><path class="st0" d="M0 0h24v24H0z"/><path d="M18.748.973H5.251A4.282 4.282 0 0 0 .973 5.25v13.497c0 2.36 1.92 4.28 4.278 4.28h13.497c2.36 0 4.278-1.92 4.278-4.28V5.25A4.282 4.282 0 0 0 18.748.973zm3.278 4.277v2.201h-6.2A5.336 5.336 0 0 0 12 5.832c-1.366 0-2.601.53-3.549 1.375V1.973h10.297a3.281 3.281 0 0 1 3.278 3.277zM12 6.832c2.403 0 4.358 1.955 4.358 4.358S14.403 15.55 12 15.55s-4.358-1.955-4.358-4.359S9.597 6.832 12 6.832zM7.451 1.973v5.478H5.212V1.977c.014 0 .026-.004.04-.004h2.2zm-3.239.185V7.45H1.973V5.25c0-1.442.943-2.655 2.24-3.092zm14.536 19.868H5.251a3.282 3.282 0 0 1-3.278-3.279V8.451H7.42a5.3 5.3 0 0 0-.778 2.74A5.364 5.364 0 0 0 12 16.548a5.364 5.364 0 0 0 5.358-5.359 5.301 5.301 0 0 0-.777-2.739h5.445v10.296c0 1.809-1.47 3.28-3.278 3.28z"/><path d="M18.478 3.903h1.619v1.619h-1.619z"/></svg>