<svg id="Layer_1" xmlns="http://www.w3.org/2000/svg" viewBox="0 0 40 40"><style>.st0{fill:none}</style><path class="st0" d="M0 0h40v40H0z"/><path d="M30.898 0H14.156a.5.5 0 0 0-.5.5v4.792a.499.499 0 0 0 .568.496l2.914-.398v3.62h-2.982a.5.5 0 0 0-.5.5v5.147H12.22A3.623 3.623 0 0 0 8.6 18.276V36.38A3.623 3.623 0 0 0 12.22 40h14.688a3.623 3.623 0 0 0 3.62-3.62V18.277a3.624 3.624 0 0 0-3.62-3.62h-1.436V9.512a.5.5 0 0 0-.5-.5H21.99V4.729l8.976-1.223a.5.5 0 0 0 .432-.495V.5a.5.5 0 0 0-.5-.5zm-1.37 18.276V36.38A2.622 2.622 0 0 1 26.907 39H12.22A2.622 2.622 0 0 1 9.6 36.38V18.277a2.622 2.622 0 0 1 2.619-2.62h14.688a2.622 2.622 0 0 1 2.62 2.62zm-5.056-3.62h-9.816v-4.645h9.816v4.646zM20.99 9.012h-2.852V5.254l2.852-.388V9.01zm9.408-6.437L14.656 4.72V1h15.742v1.574z"/></svg>