<svg id="Layer_1" xmlns="http://www.w3.org/2000/svg" viewBox="0 0 12 12"><style>.st0{fill:none}</style><path class="st0" d="M0 0h12v12H0z"/><path d="M11.803 11.096L8.457 7.75a4.691 4.691 0 0 0 1.07-2.962A4.744 4.744 0 0 0 4.79.051 4.744 4.744 0 0 0 .051 4.789a4.744 4.744 0 0 0 4.738 4.738 4.69 4.69 0 0 0 2.961-1.07l3.346 3.346a.498.498 0 0 0 .707 0 .5.5 0 0 0 0-.707zM1.05 4.789c0-2.061 1.677-3.738 3.738-3.738s3.738 1.677 3.738 3.738c0 1.03-.419 1.965-1.096 2.642a3.727 3.727 0 0 1-2.642 1.096A3.742 3.742 0 0 1 1.051 4.79z"/></svg>