<svg id="Layer_1" xmlns="http://www.w3.org/2000/svg" viewBox="0 0 40 40"><style>.st0{fill:none}</style><path class="st0" d="M0 0h40v40H0z"/><path d="M33.187 18.965a2.324 2.324 0 0 0 2.32-2.321V2.321A2.324 2.324 0 0 0 33.188 0H6.813a2.324 2.324 0 0 0-2.32 2.321v14.323a2.324 2.324 0 0 0 2.32 2.321h4.235v2.07H6.813a2.324 2.324 0 0 0-2.32 2.32V37.68A2.324 2.324 0 0 0 6.812 40h26.374a2.324 2.324 0 0 0 2.32-2.321V23.355c0-1.279-1.04-2.32-2.32-2.32H28.95v-2.07h4.236zM5.492 16.644V2.321C5.492 1.593 6.085 1 6.813 1h26.374c.728 0 1.32.593 1.32 1.321v14.323c0 .729-.592 1.321-1.32 1.321H6.813a1.323 1.323 0 0 1-1.32-1.321zm29.016 6.711V37.68c0 .728-.593 1.321-1.321 1.321H6.813a1.323 1.323 0 0 1-1.32-1.321V23.355c0-.727.592-1.32 1.32-1.32h26.374c.728 0 1.32.593 1.32 1.32zm-6.557-2.32H12.048v-2.07h15.903v2.07z"/><path d="M10.333 23a3.599 3.599 0 0 0-3.595 3.595c0 1.981 1.613 3.593 3.595 3.593s3.594-1.612 3.594-3.593A3.598 3.598 0 0 0 10.333 23zm0 6.188c-1.431 0-2.595-1.163-2.595-2.593S8.902 24 10.333 24s2.594 1.164 2.594 2.595-1.164 2.593-2.594 2.593zM10.333 30.846a3.599 3.599 0 0 0-3.595 3.594c0 1.982 1.613 3.594 3.595 3.594s3.594-1.612 3.594-3.594a3.598 3.598 0 0 0-3.594-3.594zm0 6.188c-1.431 0-2.595-1.163-2.595-2.594s1.164-2.594 2.595-2.594 2.594 1.164 2.594 2.594-1.164 2.594-2.594 2.594zM18.307 23a3.598 3.598 0 0 0-3.595 3.595c0 1.981 1.613 3.593 3.595 3.593s3.594-1.612 3.594-3.593A3.599 3.599 0 0 0 18.307 23zm0 6.188c-1.431 0-2.595-1.163-2.595-2.593S16.876 24 18.307 24s2.594 1.164 2.594 2.595-1.164 2.593-2.594 2.593zM18.307 30.846a3.598 3.598 0 0 0-3.595 3.594c0 1.982 1.613 3.594 3.595 3.594S21.9 36.422 21.9 34.44a3.599 3.599 0 0 0-3.594-3.594zm0 6.188c-1.431 0-2.595-1.163-2.595-2.594s1.164-2.594 2.595-2.594S20.9 33.01 20.9 34.44s-1.164 2.594-2.594 2.594zM24.77 23a.5.5 0 0 0-.5.5v14.034a.5.5 0 1 0 1 0V23.5a.5.5 0 0 0-.5-.5zM27.858 23a.5.5 0 0 0-.5.5v14.034a.5.5 0 1 0 1 0V23.5a.5.5 0 0 0-.5-.5zM30.945 38.034a.5.5 0 0 0 .5-.5V23.5a.5.5 0 1 0-1 0v14.034a.5.5 0 0 0 .5.5z"/></svg>