<svg id="Layer_1" xmlns="http://www.w3.org/2000/svg" viewBox="0 0 40 40"><style>.st0{fill:none}</style><path class="st0" d="M0 0h40v40H0z"/><path d="M25.117 22.24a.49.49 0 0 0-.032-.157c-.182-2.889-.642-5.527-1.337-7.654 1.133-1.004 5.53-5.317 4.549-11.045-.633-3.698-7.989-3.39-8.27-3.373-.01 0-.018-.005-.027-.005-.006 0-.012.003-.018.004-.307-.015-2.504-.084-4.573.423-.017.005-.036.005-.052.012-1.742.436-3.37 1.286-3.653 2.94-.982 5.728 3.416 10.042 4.549 11.044-.92 2.813-1.43 6.522-1.43 10.512C14.824 32.241 16.639 40 20 40s5.177-7.759 5.177-15.059c0-.885-.03-1.754-.079-2.606.006-.032.02-.061.02-.095zm-7.929-7.475h5.625c.621 1.918 1.047 4.352 1.242 6.975h-8.11c.195-2.624.621-5.057 1.243-6.975zM27.311 3.553c.917 5.35-3.536 9.52-4.325 10.212h-.644c.738-1.715 2.445-6.312 2.565-12.216 1.234.382 2.233 1.005 2.404 2.004zM23.91 1.3c-.083 6.332-2.125 11.272-2.665 12.465H20.5V.998c.907-.011 2.194.057 3.412.302zM19.5.997v12.768h-.772c-.54-1.19-2.579-6.118-2.664-12.457 1.218-.248 2.51-.32 3.436-.31zm-6.811 2.556c.17-.99 1.155-1.61 2.38-1.993.122 5.899 1.827 10.492 2.564 12.205h-.62c-.79-.69-5.242-4.85-4.324-10.212zM20 39c-1.975 0-4.176-5.773-4.176-14.059 0-.742.024-1.475.06-2.2h8.232c.037.725.06 1.458.06 2.2C24.177 33.227 21.977 39 20 39z"/></svg>