<svg id="Layer_1" xmlns="http://www.w3.org/2000/svg" viewBox="0 0 40 40"><style>.st0{fill:none}</style><path class="st0" d="M0 0h40v40H0z"/><path d="M28.818 13.515v-5.86c0-4.22-3.434-7.655-7.655-7.655h-2.326c-4.221 0-7.656 3.435-7.656 7.656v6.027c-2.84 2.185-4.473 5.51-4.473 9.18V39.5a.5.5 0 1 0 1 0V22.862c0-3.084 1.26-5.898 3.473-7.882v10.745c0 4.221 3.435 7.656 7.656 7.656h2.147c4.248 0 7.838-3.506 7.838-7.656a.438.438 0 0 0-.004-.063v-10.81c2.215 2.118 3.473 4.916 3.473 7.832V39.32a.5.5 0 1 0 1 0V22.684c0-3.485-1.632-6.808-4.473-9.169zM18.837 1h2.326a6.663 6.663 0 0 1 6.655 6.656V8.1C25.688 6.47 22.894 5.546 20 5.546c-2.687 0-5.543.965-7.819 2.602v-.492A6.663 6.663 0 0 1 18.837 1zm2.147 31.38h-2.147a6.664 6.664 0 0 1-6.656-6.655V9.402c2.19-1.788 5.102-2.856 7.819-2.856 2.964 0 5.805 1.04 7.818 2.85v16.329c0 .02.001.04.004.06-.035 3.582-3.152 6.596-6.838 6.596z"/></svg>