<svg id="Layer_1" xmlns="http://www.w3.org/2000/svg" viewBox="0 0 40 40"><style>.st0{fill:none}</style><path class="st0" d="M0 0h40v40H0z"/><path d="M28.365 9.237V5.47A5.475 5.475 0 0 0 22.896 0h-5.792a5.476 5.476 0 0 0-5.47 5.47v3.767c-2.386 1.998-3.758 4.892-3.758 7.992V39.5a.5.5 0 1 0 1 0V17.23c0-2.516.994-4.886 2.759-6.653v8.983c0 5.755 3.752 10.438 8.365 10.438 4.612 0 8.365-4.683 8.365-10.438v-8.983a9.38 9.38 0 0 1 2.759 6.652V39.5a.5.5 0 1 0 1 0V17.23c0-3.1-1.372-5.995-3.759-7.993zm-1 10.323c0 5.204-3.303 9.438-7.365 9.438-4.061 0-7.365-4.234-7.365-9.438V5.47A4.474 4.474 0 0 1 17.104 1h5.792a4.474 4.474 0 0 1 4.47 4.47v14.09z"/></svg>