<svg id="Layer_1" xmlns="http://www.w3.org/2000/svg" viewBox="0 0 40 40"><style>.st0{fill:none}</style><path class="st0" d="M0 0h40v40H0z"/><path d="M25.781 19.89V.5a.5.5 0 0 0-.5-.5H14.72a.5.5 0 0 0-.5.5v19.39c-3.306.865-4.684 11.3-4.937 13.518A6.6 6.6 0 0 0 15.874 40h8.253c3.634 0 6.59-2.957 6.588-6.65-.25-2.163-1.628-12.595-4.934-13.46zM15.22 1h9.562v18.826H15.22V1zm8.908 38h-8.253c-3.084 0-5.592-2.509-5.596-5.534.607-5.248 2.368-12.64 4.381-12.64h10.682c2.013 0 3.772 7.392 4.377 12.582A5.598 5.598 0 0 1 24.127 39z"/></svg>