<svg id="Layer_1" xmlns="http://www.w3.org/2000/svg" viewBox="0 0 40 40"><style>.st0{fill:none}</style><path class="st0" d="M0 0h40v40H0z"/><path d="M37.174 29.383a.007.007 0 0 0-.002-.004c-.445-.8-1.269-1.34-2.259-1.478a3.685 3.685 0 0 0-2.083.317 3.562 3.562 0 0 0-.69-2.123 3.354 3.354 0 0 0-2.68-1.37c-.956 0-1.866.462-2.494 1.266a3.93 3.93 0 0 0-.816 2.298 3.754 3.754 0 0 0-2.138-.33c-.96.139-1.78.647-2.246 1.395-.588.923-.621 2.056-.093 3.107.474.942 1.339 1.67 2.337 2.017a3.695 3.695 0 0 0-.873 2.062c-.086.978.24 1.914.896 2.57.6.6 1.39.918 2.238.918.243 0 .49-.025.74-.079.986-.209 1.866-.816 2.45-1.656.585.84 1.465 1.447 2.452 1.656 1.12.241 2.206-.068 2.977-.839a3.099 3.099 0 0 0 .904-2.394c-.044-.796-.362-1.563-.914-2.226a3.978 3.978 0 0 0 2.219-1.872c.577-1.056.605-2.264.075-3.235zm-.952 2.756a2.969 2.969 0 0 1-2.398 1.551.501.501 0 0 0-.277.89c.76.608 1.204 1.387 1.249 2.191a2.114 2.114 0 0 1-.613 1.632c-.529.528-1.277.732-2.063.569-.976-.207-1.817-.943-2.192-1.917-.149-.387-.785-.387-.934 0-.375.974-1.215 1.709-2.191 1.917-.786.164-1.534-.041-2.063-.569-.445-.446-.667-1.093-.607-1.775.07-.797.513-1.537 1.218-2.03a.499.499 0 0 0-.252-.908 3.131 3.131 0 0 1-2.533-1.68c-.367-.727-.351-1.5.045-2.123.313-.5.875-.842 1.543-.938.126-.018.253-.027.38-.027.68 0 1.352.259 1.889.736a.499.499 0 0 0 .817-.495c-.225-.9-.033-1.855.514-2.557.944-1.209 2.727-1.074 3.583.082.496.673.625 1.566.353 2.449a.5.5 0 0 0 .831.5 2.664 2.664 0 0 1 2.253-.745c.676.093 1.23.448 1.523.97.371.681.343 1.51-.075 2.277z"/><path d="M29.46 29.63c-1.674 0-3.036 1.362-3.036 3.037s1.362 3.037 3.037 3.037 3.038-1.362 3.038-3.037-1.363-3.037-3.038-3.037zm0 5.074c-1.122 0-2.036-.914-2.036-2.037s.914-2.037 2.037-2.037c1.124 0 2.038.914 2.038 2.037s-.914 2.037-2.038 2.037zM21.004 38.933H8.317a2.886 2.886 0 0 1-2.882-2.883V14.06a2.886 2.886 0 0 1 2.882-2.883H21.85a2.886 2.886 0 0 1 2.882 2.883v9.303a.5.5 0 1 0 1 0V14.06a3.887 3.887 0 0 0-3.882-3.883h-3.045L17.24 6.263a.5.5 0 0 0-.464-.315h-1.192v-4.92h5.42a.5.5 0 1 0 0-1H9.164a.501.501 0 0 0-.383.179L5.228 4.435a.5.5 0 1 0 .766.644l3.402-4.05h5.187v4.92h-1.19a.5.5 0 0 0-.465.314l-1.566 3.914H8.317a3.887 3.887 0 0 0-3.882 3.883v21.99a3.887 3.887 0 0 0 3.882 3.883h12.687a.5.5 0 1 0 0-1zM13.73 6.948h2.707l1.291 3.23H12.44l1.291-3.23z"/></svg>