<svg id="Layer_1" xmlns="http://www.w3.org/2000/svg" viewBox="0 0 40 40"><style>.st0{fill:none}</style><path class="st0" d="M0 0h40v40H0z"/><path d="M39.464 3.172a1.803 1.803 0 0 0-1.582-.525c-.246.037-.471.138-.678.268l-.043-.002H2.108A2.11 2.11 0 0 0 0 5.02v4.245a2.11 2.11 0 0 0 2.108 2.108h17.796a2.111 2.111 0 0 0 2.109-2.108 1.11 1.11 0 0 1 1.108-1.109h11.172c-7.73 13.08-23.818 20.703-24.57 21.053a1.83 1.83 0 0 0-.965 1.097 1.848 1.848 0 0 0 .148 1.468l2.621 4.66c.338.6.96.94 1.602.94.275 0 .554-.062.815-.193 6.3-3.159 23.257-15.141 26.032-32.414.095-.59-.091-1.171-.512-1.596zM23.12 7.157a2.111 2.111 0 0 0-2.108 2.109 1.11 1.11 0 0 1-1.109 1.108H2.108A1.11 1.11 0 0 1 1 9.266V5.02a1.11 1.11 0 0 1 1.108-1.108h34.293a31.09 31.09 0 0 1-1.546 3.244H23.12zm-9.625 29.13a.83.83 0 0 1-1.097-.343l-2.621-4.66a.834.834 0 0 1 .368-1.167c.779-.363 17.704-8.389 25.426-22.193.02-.031.04-.061.054-.097a32.012 32.012 0 0 0 1.758-3.666h-.001a.844.844 0 0 1 .648-.525.82.82 0 0 1 .723.24.841.841 0 0 1 .234.733c-2.707 16.858-19.32 28.584-25.492 31.679z"/></svg>