<svg id="Layer_1" xmlns="http://www.w3.org/2000/svg" viewBox="0 0 40 40"><style>.st0{fill:none}</style><path class="st0" d="M0 0h40v40H0z"/><path d="M29.326 28.138a2.94 2.94 0 0 0 0 4.15c.555.556 1.292.861 2.075.861a2.938 2.938 0 0 0 2.075-5.01 2.936 2.936 0 0 0-4.15 0zm3.443 3.444c-.73.73-2.005.731-2.736 0a1.938 1.938 0 0 1 0-2.737 1.93 1.93 0 0 1 1.368-.565c.496 0 .991.189 1.368.565a1.938 1.938 0 0 1 0 2.737z"/><path d="M39.852 32.61a.5.5 0 0 0-.707 0c-.942.942-1.839 1.154-2.425 1.165a2.228 2.228 0 0 1-1.273-.319c1.639-2.043 1.534-5.033-.36-6.927a5.177 5.177 0 0 0-3.685-1.526 5.177 5.177 0 0 0-3.686 1.526c-.403.403-.731.86-.98 1.365l-4.33-4.33L33.958 7.571c.049-.06.482-.6.45-1.383-.031-.813-.589-1.398-.652-1.462a.5.5 0 0 0-.709-.002l-14.741 14.74L3.565 4.725a.5.5 0 0 0-.354-.147H3.21a.5.5 0 0 0-.354.149c-.064.064-.621.65-.653 1.462a2.123 2.123 0 0 0 .43 1.355l11.573 16.021-4.33 4.33a5.143 5.143 0 0 0-.981-1.365 5.22 5.22 0 0 0-7.37 0 5.217 5.217 0 0 0 0 7.37 5.195 5.195 0 0 0 3.685 1.523c1.323 0 2.647-.5 3.66-1.5l.025-.023 9.377-9.376.034-.034 9.41 9.41a5.197 5.197 0 0 0 3.686 1.524 5.19 5.19 0 0 0 3.336-1.24c.53.373 1.215.593 1.93.593h.072c.77-.016 1.935-.281 3.112-1.459a.5.5 0 0 0 0-.707zm-6.53-26.748c.047.11.082.235.087.366.016.402-.22.702-.24.729l-11.48 15.89-2.676-2.675 14.309-14.31zM8.188 33.192a4.215 4.215 0 0 1-5.956 0 4.216 4.216 0 0 1 0-5.956 4.216 4.216 0 0 1 5.956 0 4.164 4.164 0 0 1 1.03 1.697.502.502 0 0 0 .36.335.516.516 0 0 0 .471-.133l4.75-4.75.575.795c.117.163.266.295.436.39l-7.622 7.621zM31.4 34.424a4.185 4.185 0 0 1-2.978-1.235l-.02-.018-9.743-9.744a.5.5 0 0 0-.708 0L16.74 24.64a.353.353 0 0 1-.288.105.362.362 0 0 1-.268-.15L3.424 6.932a1.166 1.166 0 0 1-.222-.706c.005-.13.04-.255.087-.365L17.95 20.524v.002h.002l8.61 8.61c.122.123.301.17.47.132a.504.504 0 0 0 .36-.334c.206-.65.553-1.22 1.03-1.698a4.216 4.216 0 0 1 5.957 0 4.216 4.216 0 0 1 0 5.955 4.184 4.184 0 0 1-2.978 1.234z"/><path d="M3.135 28.138A2.938 2.938 0 0 0 5.21 33.15c.784 0 1.52-.305 2.075-.86a2.94 2.94 0 0 0 0-4.15 2.937 2.937 0 0 0-4.15 0zm3.443 3.444c-.73.73-2.005.73-2.736 0a1.937 1.937 0 0 1 0-2.737c.754-.752 1.982-.753 2.736 0s.754 1.983 0 2.737z"/></svg>