<svg id="Layer_1" xmlns="http://www.w3.org/2000/svg" viewBox="0 0 40 40"><style>.st0{fill:none}</style><path class="st0" d="M0 0h40v40H0z"/><path d="M25.781 5.64V.5a.5.5 0 0 0-.5-.5H14.72a.5.5 0 0 0-.5.5v5.14c-3.24 1.67-4.59 21.482-4.937 27.768A6.6 6.6 0 0 0 15.874 40h8.253c3.634 0 6.59-2.957 6.59-6.62-.345-6.259-1.696-26.07-4.936-27.74zm-1-4.64v4.514H15.22V3.257h4.063a.5.5 0 1 0 0-1h-4.063V1h9.562zm-.654 38h-8.253c-3.084 0-5.592-2.509-5.593-5.564.004-.069.386-6.912 1.175-13.667C12.958 6.886 14.49 6.514 14.659 6.514h10.682c.17 0 1.7.372 3.203 13.251.788 6.756 1.17 13.602 1.174 13.643A5.598 5.598 0 0 1 24.127 39z"/></svg>