<svg id="Layer_1" xmlns="http://www.w3.org/2000/svg" viewBox="0 0 40 40"><style>.st0{fill:none}</style><path class="st0" d="M0 0h40v40H0z"/><path d="M27.172 5.514h-1.39V.5a.5.5 0 0 0-.5-.5H14.718a.5.5 0 0 0-.5.5v5.014h-1.391A3.55 3.55 0 0 0 9.282 9.06v27.394A3.55 3.55 0 0 0 12.828 40h14.344a3.55 3.55 0 0 0 3.546-3.546V9.06a3.55 3.55 0 0 0-3.546-3.546zM15.219 3.257h4.063a.5.5 0 1 0 0-1h-4.063V1h9.562v4.514H15.22V3.257zm14.499 33.197A2.548 2.548 0 0 1 27.172 39H12.828a2.548 2.548 0 0 1-2.546-2.546V9.06a2.549 2.549 0 0 1 2.546-2.546H27.17a2.548 2.548 0 0 1 2.547 2.546v27.394z"/></svg>