<svg id="Layer_1" xmlns="http://www.w3.org/2000/svg" viewBox="0 0 40 40"><style>.st0{fill:none}</style><path class="st0" d="M0 0h40v40H0z"/><path d="M39.884 19.68c-2.04-2.447-5.048-4.03-8.355-4.453 2.047-2.637 3.048-5.852 2.757-9.06a.5.5 0 0 0-.453-.454c-3.202-.286-6.421.713-9.06 2.759-.423-3.307-2.007-6.316-4.453-8.356a.499.499 0 0 0-.64 0c-2.447 2.04-4.03 5.049-4.453 8.355-2.636-2.046-5.852-3.046-9.06-2.758a.5.5 0 0 0-.454.454c-.29 3.208.711 6.423 2.758 9.06-3.306.423-6.315 2.006-8.355 4.453a.5.5 0 0 0 0 .64c2.04 2.447 5.048 4.03 8.355 4.453-2.047 2.637-3.048 5.852-2.758 9.06a.5.5 0 0 0 .454.453c.367.033.735.05 1.103.05 2.836 0 5.622-.997 7.957-2.809.423 3.307 2.006 6.316 4.453 8.357a.5.5 0 0 0 .64 0c2.446-2.04 4.03-5.05 4.453-8.357 2.335 1.813 5.123 2.81 7.96 2.81.367 0 .734-.017 1.1-.05a.5.5 0 0 0 .453-.453c.29-3.209-.71-6.424-2.757-9.061 3.307-.423 6.315-2.006 8.355-4.453a.499.499 0 0 0 0-.64zm-6.564-13c.176 3.337-1.147 6.663-3.668 9.184-2.153 2.153-4.898 3.42-7.73 3.64-.467-.034-.936-.04-1.406-.02.021-.475.015-.949-.02-1.421.222-2.829 1.49-5.565 3.64-7.715 2.521-2.521 5.854-3.838 9.184-3.669zM20 1.161c2.227 2.01 3.614 4.927 3.855 8.095-.141.13-.29.247-.426.384a13.6 13.6 0 0 0-3.43 5.715 13.599 13.599 0 0 0-3.428-5.715c-.137-.137-.285-.254-.426-.384.24-3.167 1.627-6.086 3.855-8.095zm-4.136 9.186c2.15 2.149 3.418 4.885 3.64 7.714-.035.473-.041.946-.02 1.422a12.27 12.27 0 0 0-1.42.02c-2.83-.22-5.566-1.49-7.716-3.64-2.521-2.521-3.844-5.847-3.669-9.185 3.329-.179 6.664 1.148 9.185 3.669zM1.162 20c2.01-2.228 4.928-3.615 8.095-3.855.13.14.247.29.384.426 1.642 1.642 3.605 2.806 5.698 3.435A13.597 13.597 0 0 0 9.64 23.43c-.137.136-.254.284-.383.425C6.09 23.615 3.17 22.227 1.162 20zm5.517 13.32c-.175-3.337 1.148-6.663 3.669-9.183 2.142-2.143 4.864-3.408 7.684-3.636.303.022.606.047.91.047.18 0 .361-.017.542-.025-.021.474-.015.945.02 1.416-.222 2.828-1.491 5.564-3.64 7.713-2.522 2.52-5.854 3.845-9.185 3.668zM20 38.838c-2.227-2.009-3.614-4.926-3.854-8.092.14-.13.288-.25.425-.387A13.598 13.598 0 0 0 20 24.645a13.6 13.6 0 0 0 3.43 5.714c.136.137.284.257.425.388-.241 3.166-1.628 6.083-3.855 8.09zm4.137-9.186c-2.15-2.149-3.419-4.885-3.64-7.714.034-.47.04-.941.02-1.415.18.008.36.025.54.025.308 0 .615-.025.922-.048 2.82.229 5.534 1.496 7.673 3.637 2.52 2.52 3.844 5.846 3.668 9.184-3.33.168-6.663-1.15-9.183-3.669zm6.606-5.797c-.13-.14-.247-.29-.384-.425a13.589 13.589 0 0 0-5.7-3.423 13.62 13.62 0 0 0 5.7-3.436c.137-.137.254-.285.384-.426 3.168.24 6.086 1.627 8.095 3.855-2.009 2.228-4.928 3.615-8.095 3.855z"/></svg>