<svg id="Layer_1" xmlns="http://www.w3.org/2000/svg" viewBox="0 0 40 40"><style>.st0{fill:none}</style><path class="st0" d="M0 0h40v40H0z"/><path d="M33.869 28.33c.133-.117.271-.226.402-.347 4.005-3.7 6.124-8.917 5.668-13.954a.5.5 0 0 0-.414-.447c-4.223-.719-8.72.4-12.433 3.008-.351-5.316-2.844-10.217-6.787-13.252a.502.502 0 0 0-.61 0c-3.942 3.034-6.436 7.936-6.786 13.253-3.711-2.61-8.207-3.729-12.434-3.01a.5.5 0 0 0-.414.448c-.456 5.037 1.664 10.253 5.668 13.954.13.121.269.23.402.346-1.79.758-3.361 1.915-4.517 3.416a.5.5 0 0 0 0 .61c2.126 2.761 5.636 4.41 9.391 4.41 3.539 0 6.845-1.478 8.995-3.958 2.15 2.481 5.456 3.959 8.994 3.959 3.755 0 7.266-1.649 9.392-4.412a.501.501 0 0 0 0-.609c-1.156-1.5-2.728-2.658-4.517-3.416zm5.104-13.823c.288 4.61-1.705 9.346-5.381 12.742-.258.239-.524.46-.791.68a12.602 12.602 0 0 0-3.807-.596c-3.268 0-6.349 1.252-8.495 3.398l-.001-1.288c.354-3.957 2.254-7.712 5.349-10.573 3.675-3.397 8.556-5.015 13.126-4.363zM20 4.372c3.7 3.005 5.962 7.803 6.118 12.95-.324.26-.642.529-.95.813-2.55 2.358-4.321 5.296-5.166 8.484-.841-3.175-2.615-6.121-5.17-8.484a18.57 18.57 0 0 0-.95-.812C14.039 12.175 16.3 7.376 20 4.372zM6.408 27.249C2.733 23.853.74 19.116 1.027 14.507c4.574-.652 9.45.966 13.125 4.363 3.092 2.857 4.99 6.607 5.348 10.56v1.3c-2.146-2.146-5.227-3.397-8.495-3.397-1.316 0-2.599.214-3.806.596-.268-.219-.534-.441-.791-.68zm4.597 8.517c-3.305 0-6.396-1.382-8.353-3.716 1.957-2.334 5.049-3.717 8.353-3.717s6.396 1.383 8.354 3.717c-1.957 2.334-5.048 3.716-8.354 3.716zm17.99 0c-3.305 0-6.396-1.382-8.354-3.716 1.958-2.334 5.05-3.717 8.353-3.717 3.305 0 6.397 1.383 8.354 3.717-1.957 2.334-5.05 3.716-8.354 3.716z"/></svg>