<svg id="Layer_1" xmlns="http://www.w3.org/2000/svg" viewBox="0 0 24 24"><style>.st0{fill:none}</style><path class="st0" d="M0 0h24v24H0z"/><g id="Outline_Icons_1_"><g id="Outline_Icons"><path d="M12 19C5.481 19 .324 12.583.108 12.31a.5.5 0 0 1 0-.62C.324 11.415 5.48 5 12 5c6.519 0 11.676 6.416 11.892 6.69a.499.499 0 0 1 0 .62C23.676 12.583 18.519 19 12 19zM1.154 12c1.11 1.27 5.598 6 10.846 6 5.255 0 9.736-4.73 10.846-6-1.11-1.27-5.599-6-10.846-6-5.255 0-9.737 4.729-10.846 6z"/><path d="M12 16.5A4.505 4.505 0 0 1 7.5 12c0-2.482 2.019-4.5 4.5-4.5s4.5 2.018 4.5 4.5-2.019 4.5-4.5 4.5zm0-8c-1.93 0-3.5 1.57-3.5 3.5s1.57 3.5 3.5 3.5 3.5-1.57 3.5-3.5-1.57-3.5-3.5-3.5z"/></g></g></svg>